<svg xmlns="http://www.w3.org/2000/svg" width="37" height="37" viewBox="0 0 37 37">
  <g id="dappBrowserIcon" transform="translate(-73 -804)">
    <g id="Circle" transform="translate(73 804)" fill="none" stroke="#fff" stroke-width="1.5">
      <circle cx="18.5" cy="18.5" r="18.5" stroke="none"/>
      <circle cx="18.5" cy="18.5" r="17.75" fill="none"/>
    </g>
    <g id="Circle-2" data-name="Circle" transform="translate(79 804)" fill="none" stroke="#fff" stroke-width="1.5">
      <ellipse cx="12.5" cy="18.5" rx="12.5" ry="18.5" stroke="none"/>
      <ellipse cx="12.5" cy="18.5" rx="11.75" ry="17.75" fill="none"/>
    </g>
    <g id="Circle-3" data-name="Circle" transform="translate(110 810) rotate(90)" fill="none" stroke="#fff" stroke-width="1.5">
      <ellipse cx="12.5" cy="18.5" rx="12.5" ry="18.5" stroke="none"/>
      <ellipse cx="12.5" cy="18.5" rx="11.75" ry="17.75" fill="none"/>
    </g>
    <g id="cube" transform="translate(-463.526 -43.365)">
      <path id="Path_33" data-name="Path 33" d="M.269.067,8.492-3.7V6.859L.269,11.214Z" transform="translate(555 864)" fill="#077"/>
      <path id="Path_34" data-name="Path 34" d="M8.492.067.051-3.648V6.9l8.27,4.355Z" transform="translate(546.508 864)" fill="#02d6d6"/>
      <path id="Path_35" data-name="Path 35" d="M14.712,4.792,6.362,1.476-1.629,4.792l8.23,3.8Z" transform="translate(548.508 855)" fill="#02d6d6"/>
      <path id="Path_36" data-name="Path 36" d="M546.236,869.523l2.107-3.423,1.229,2.809,2.984-2.809" fill="none" stroke="#000" stroke-linecap="round" stroke-width="1"/>
      <circle id="Ellipse_1" data-name="Ellipse 1" cx="1" cy="1" r="1" transform="translate(547.526 863.365)"/>
      <circle id="Ellipse_3" data-name="Ellipse 3" cx="1.5" cy="1.5" r="1.5" transform="translate(551.526 864.365)"/>
      <circle id="Ellipse_2" data-name="Ellipse 2" cx="1" cy="1" r="1" transform="translate(548.526 869.365)"/>
    </g>
  </g>
</svg>
