<svg xmlns="http://www.w3.org/2000/svg" width="27.532" height="25.5" viewBox="0 0 27.532 25.5">
  <g id="qrScanner2" transform="translate(-3.375 -4.5)">
    <rect id="Box" width="27.259" height="25.5" transform="translate(3.648 4.5)" fill="transparent"/>
    <path id="Path_28" data-name="Path 28" d="M11.829,4.5H7.884A4.51,4.51,0,0,0,3.375,9.009v3.945a.939.939,0,1,0,1.879,0V8.942a2.575,2.575,0,0,1,.785-1.758,2.562,2.562,0,0,1,1.778-.805h4.012a.939.939,0,1,0,0-1.879Z" transform="translate(0 0)" fill="#fff"/>
    <path id="Path_29" data-name="Path 29" d="M27.733,4.5H23.721a.939.939,0,0,0,0,1.879h4.012a2.562,2.562,0,0,1,1.778.805A2.575,2.575,0,0,1,30.3,8.942v4.012a.939.939,0,0,0,1.879,0V8.942A4.447,4.447,0,0,0,27.733,4.5Z" transform="translate(-1.268 0)" fill="#fff"/>
    <path id="Path_30" data-name="Path 30" d="M11.829,29.171H7.817a2.731,2.731,0,0,1-2.563-2.563V22.6a.939.939,0,0,0-1.879,0v4.012A4.447,4.447,0,0,0,7.817,31.05h4.012a.939.939,0,1,0,0-1.879Z" transform="translate(0 -1.25)" fill="#fff"/>
    <path id="Path_31" data-name="Path 31" d="M31.235,21.656a.942.942,0,0,0-.939.939v4.012a2.731,2.731,0,0,1-2.563,2.563H23.721a.939.939,0,1,0,0,1.879h3.945a4.514,4.514,0,0,0,4.509-4.509V22.6A.942.942,0,0,0,31.235,21.656Z" transform="translate(-1.268 -1.25)" fill="#fff"/>
    <path id="qr-Icon" d="M6.925,2.794H3.442V6.256H6.925ZM7.8,1.928V7.121H2.571V1.928ZM4.312,3.659H6.054V5.39H4.312Zm11.321-.866H12.15V6.256h3.483Zm.871-.866V7.121H11.279V1.928ZM13.021,3.659h1.742V5.39H13.021Zm-6.1,7.79H3.442v3.462H6.925Zm.871-.866v5.193H2.571V10.583ZM4.312,12.314H6.054v1.731H4.312ZM8.667,1.928h.871v.866H8.667Zm.871.866h.871v.866H9.538Zm-.871.866h.871v.866H8.667Zm.871.866h.871V5.39H9.538Zm-.871.866h.871v.866H8.667Zm.871.866h.871v.866H9.538Zm-.871.866h.871v.866H8.667Zm0,1.731h.871v.866H8.667Zm.871.866h.871v.866H9.538Zm-.871.866h.871v.866H8.667Zm.871.866h.871v.866H9.538Zm-.871.866h.871v.866H8.667Zm.871.866h.871v.866H9.538Zm-.871.866h.871v.866H8.667Zm.871.866h.871v.866H9.538Zm6.1-6.059H16.5v.866h-.871Zm-12.192,0h.871v.866H3.442Zm.871-.866h.871v.866H4.312Zm-1.742,0h.871v.866H2.571Zm3.483,0h.871v.866H6.054Zm.871.866H7.8v.866H6.925ZM7.8,7.987h.871v.866H7.8Zm2.613.866h.871v.866h-.871Zm.871-.866h.871v.866h-.871Zm.871.866h.871v.866H12.15Zm.871-.866h.871v.866h-.871Zm.871.866h.871v.866h-.871Zm.871-.866h.871v.866h-.871Zm.871,2.6H16.5v.866h-.871Zm-5.225,0h.871v.866h-.871Zm.871-.866h.871v.866h-.871Zm.871.866h.871v.866H12.15Zm1.742,0h.871v.866h-.871Zm.871-.866h.871v.866h-.871Zm.871,2.6H16.5v.866h-.871Zm-5.225,0h.871v.866h-.871Zm.871-.866h.871v.866h-.871Zm1.742,0h.871v.866h-.871Zm.871.866h.871v.866h-.871Zm.871-.866h.871v.866h-.871Zm.871,2.6H16.5v.866h-.871Zm-4.354-.866h.871v.866h-.871Zm.871.866h.871v.866H12.15Zm.871-.866h.871v.866h-.871Zm.871.866h.871v.866h-.871Zm-2.613.866h.871v.866h-.871Zm1.742,0h.871v.866h-.871Zm1.742,0h.871v.866h-.871Z" transform="translate(7.484 8.297)" fill="#fff"/>
  </g>
</svg>
