<svg xmlns="http://www.w3.org/2000/svg" fill="transparent" width="37" height="34.27" viewBox="0 0 37 34.27">
  <g id="qrScanner" transform="translate(-3.375 -4.5)">
    <rect id="Box" width="37" height="34" transform="translate(3.375 4.77)"/>
    <path id="Path_28" data-name="Path 28" d="M14.736,4.5h-5.3a6.061,6.061,0,0,0-6.059,6.059v5.3a1.262,1.262,0,1,0,2.525,0V10.469A3.46,3.46,0,0,1,6.955,8.107a3.443,3.443,0,0,1,2.39-1.082h5.392a1.262,1.262,0,0,0,0-2.525Z" fill="#fff"/>
    <path id="Path_29" data-name="Path 29" d="M29.436,4.5H24.044a1.262,1.262,0,0,0,0,2.525h5.392a3.443,3.443,0,0,1,2.39,1.082,3.46,3.46,0,0,1,1.055,2.362v5.392a1.262,1.262,0,0,0,2.525,0V10.469A5.976,5.976,0,0,0,29.436,4.5Z" transform="translate(4.97)" fill="#fff"/>
    <path id="Path_30" data-name="Path 30" d="M14.736,31.755H9.344a3.443,3.443,0,0,1-2.39-1.082A3.46,3.46,0,0,1,5.9,28.311V22.919a1.262,1.262,0,0,0-2.525,0v5.392A5.976,5.976,0,0,0,9.344,34.28h5.392a1.262,1.262,0,1,0,0-2.525Z" transform="translate(0 4.22)" fill="#fff"/>
    <path id="Path_31" data-name="Path 31" d="M34.143,21.656a1.266,1.266,0,0,0-1.262,1.262v5.392a3.67,3.67,0,0,1-3.444,3.444H24.044a1.262,1.262,0,1,0,0,2.525h5.3a6.067,6.067,0,0,0,6.059-6.059v-5.3A1.266,1.266,0,0,0,34.143,21.656Z" transform="translate(4.97 4.22)" fill="#fff"/>
    <path id="qr-Icon" d="M8.422,3.091H3.741V7.744H8.422Zm1.17-1.163V8.907H2.571V1.928ZM4.911,4.254H7.252V6.581H4.911ZM20.126,3.091H15.445V7.744h4.681ZM21.3,1.928V8.907H14.274V1.928ZM16.615,4.254h2.341V6.581H16.615ZM8.422,14.723H3.741v4.653H8.422Zm1.17-1.163v6.979H2.571V13.56ZM4.911,15.886H7.252v2.326H4.911ZM10.763,1.928h1.17V3.091h-1.17Zm1.17,1.163H13.1V4.254h-1.17Zm-1.17,1.163h1.17V5.418h-1.17Zm1.17,1.163H13.1V6.581h-1.17Zm-1.17,1.163h1.17V7.744h-1.17Zm1.17,1.163H13.1V8.907h-1.17Zm-1.17,1.163h1.17V10.07h-1.17Zm0,2.326h1.17V12.4h-1.17Zm1.17,1.163H13.1V13.56h-1.17Zm-1.17,1.163h1.17v1.163h-1.17Zm1.17,1.163H13.1v1.163h-1.17Zm-1.17,1.163h1.17v1.163h-1.17Zm1.17,1.163H13.1v1.163h-1.17Zm-1.17,1.163h1.17v1.163h-1.17Zm1.17,1.163H13.1v1.163h-1.17Zm8.192-8.142H21.3V12.4h-1.17Zm-16.385,0h1.17V12.4H3.741Zm1.17-1.163h1.17v1.163H4.911Zm-2.341,0h1.17v1.163H2.571Zm4.681,0h1.17v1.163H7.252Zm1.17,1.163h1.17V12.4H8.422Zm1.17-1.163h1.17v1.163H9.593ZM13.1,11.234h1.17V12.4H13.1Zm1.17-1.163h1.17v1.163h-1.17Zm1.17,1.163h1.17V12.4h-1.17Zm1.17-1.163h1.17v1.163h-1.17Zm1.17,1.163h1.17V12.4h-1.17Zm1.17-1.163h1.17v1.163h-1.17Zm1.17,3.49H21.3v1.163h-1.17Zm-7.022,0h1.17v1.163H13.1Zm1.17-1.163h1.17V13.56h-1.17Zm1.17,1.163h1.17v1.163h-1.17Zm2.341,0h1.17v1.163h-1.17Zm1.17-1.163h1.17V13.56h-1.17Zm1.17,3.49H21.3v1.163h-1.17Zm-7.022,0h1.17v1.163H13.1Zm1.17-1.163h1.17v1.163h-1.17Zm2.341,0h1.17v1.163h-1.17Zm1.17,1.163h1.17v1.163h-1.17Zm1.17-1.163h1.17v1.163h-1.17Zm1.17,3.49H21.3v1.163h-1.17Zm-5.852-1.163h1.17v1.163h-1.17Zm1.17,1.163h1.17v1.163h-1.17Zm1.17-1.163h1.17v1.163h-1.17Zm1.17,1.163h1.17v1.163h-1.17Zm-3.511,1.163h1.17v1.163h-1.17Zm2.341,0h1.17v1.163h-1.17Zm2.341,0h1.17v1.163h-1.17Z" transform="translate(9.781 10.266)" fill="#fff"/>
  </g>
</svg>
