<svg xmlns="http://www.w3.org/2000/svg" width="33" height="25.5" viewBox="0 0 33 25.5">
  <path id="wallet-Icon" d="M29.726,7.714H5.156A.976.976,0,0,1,4.125,6.8a.976.976,0,0,1,1.031-.911h24.75a.976.976,0,0,0,1.031-.911A2.93,2.93,0,0,0,27.844,2.25H4.125A3.906,3.906,0,0,0,0,5.893V24.107A3.906,3.906,0,0,0,4.125,27.75h25.6A3.043,3.043,0,0,0,33,25.018V10.446A3.043,3.043,0,0,0,29.726,7.714ZM26.813,19.554a1.953,1.953,0,0,1-2.062-1.821,2.078,2.078,0,0,1,4.125,0A1.953,1.953,0,0,1,26.813,19.554Z" transform="translate(0 -2.25)" fill="#777"/>
</svg>
